<?xml version="1.0" standalone="no"?><!DOCTYPE svg PUBLIC "-//W3C//DTD SVG 1.1//EN" "http://www.w3.org/Graphics/SVG/1.1/DTD/svg11.dtd"><svg t="1528446336242" class="icon" style="" viewBox="0 0 1024 1024" version="1.1" xmlns="http://www.w3.org/2000/svg" p-id="11496" xmlns:xlink="http://www.w3.org/1999/xlink" width="200" height="200"><defs><style type="text/css"></style></defs><path d="M926.5 926.5h-829v-41.4h69.1V275.2l1.1 1.7 3.5-2.1-1.1-1.9 262.2-152 0.1 0.1 24.3-14.3v778.2h41.5V263.3H664V97.5h41.5v165.8h165.8V885h55.3v41.5zM415.3 178.8L208 298.9V885h207.2V178.8z m414.5 125.9H539.6v414.5h69.1V387.7h41.4v331.6h69.1V387.7h41.4v331.6h69.1V304.7z m0 456H539.6V885h290.1V760.7z m-456-165.8H249.5v-41.4h124.4v41.4z m0 96.7H249.5v-41.4h124.3v41.4zM249.5 456.7h124.3v41.4H249.5v-41.4z" p-id="11497"></path></svg>