<?xml version="1.0" standalone="no"?><!DOCTYPE svg PUBLIC "-//W3C//DTD SVG 1.1//EN" "http://www.w3.org/Graphics/SVG/1.1/DTD/svg11.dtd"><svg t="1528446369566" class="icon" style="" viewBox="0 0 1024 1024" version="1.1" xmlns="http://www.w3.org/2000/svg" p-id="12313" xmlns:xlink="http://www.w3.org/1999/xlink" width="200" height="200"><defs><style type="text/css"></style></defs><path d="M1024 366.688c0-2.92-0.416-5.84-1.264-8.648l-70.184-234.88c-6.84-25.32-27.696-102.368-109.208-102.368H177.672c-53.96 0-93.848 37.648-109.064 101.936L1.168 358.36c-0.768 2.72-1.168 5.52-1.168 8.328 0 70.712 38.768 132.424 96.096 165.408v378.216c0 51.232 41.672 92.888 92.888 92.888h646.024c51.224 0 92.888-41.656 92.888-92.888V532.096C985.232 499.144 1024 437.4 1024 366.688z m-156.568 543.624a32.48 32.48 0 0 1-32.424 32.424H188.984a32.456 32.456 0 0 1-32.416-32.424v-356.08c11.136 2.048 22.56 3.248 34.264 3.248 64.912 0 125.648-33.392 160.592-87.688A191.232 191.232 0 0 0 512 557.48c64.96 0 125.784-33.816 160.592-87.752 34.816 53.944 95.6 87.752 160.592 87.752 11.688 0 23.12-1.2 34.248-3.248v356.08z m-34.256-413.296c-50.464 0-95.464-28.232-117.432-73.696-13.144-27.168-30.704-32.864-43.136-32.864s-30.032 5.696-43.192 32.92c-22.032 45.408-67.024 73.64-117.432 73.64a130.72 130.72 0 0 1-113.672-66.496c-14.944-26.576-33.512-32.152-46.464-32.152-13.096 0-32.096 5.816-48.16 33.568a130.904 130.904 0 0 1-112.872 65.08c-70.536 0-128.16-56.312-130.296-126.32l66.56-232.672c8.936-37.664 25.96-56.768 50.576-56.768h665.664c18.568 0 36.432 4.416 51.048 58.432l69.096 231.184c-2.24 69.96-59.808 126.144-130.288 126.144z" fill="#838384" p-id="12314"></path></svg>